<svg width="18" height="19" viewBox="0 0 18 19" fill="none" xmlns="http://www.w3.org/2000/svg">
    <g clip-path="url(#clip0_350_3980)">
        <path
            d="M9.00015 2.00021C9.99503 2.00347 10.9794 2.20401 11.8963 2.59022C12.8131 2.97643 13.6443 3.54065 14.3417 4.25021H12.0002C11.8012 4.25021 11.6105 4.32923 11.4698 4.46988C11.3292 4.61053 11.2502 4.8013 11.2502 5.00021C11.2502 5.19912 11.3292 5.38989 11.4698 5.53054C11.6105 5.67119 11.8012 5.75021 12.0002 5.75021H15.1074C15.4767 5.75001 15.8309 5.60321 16.092 5.34206C16.3532 5.08091 16.5 4.72678 16.5002 4.35746V1.25021C16.5002 1.05129 16.4211 0.860529 16.2805 0.719877C16.1398 0.579225 15.9491 0.500207 15.7502 0.500207C15.5512 0.500207 15.3605 0.579225 15.2198 0.719877C15.0792 0.860529 15.0002 1.05129 15.0002 1.25021V2.80871C13.7605 1.6923 12.2346 0.943014 10.5932 0.644769C8.95186 0.346523 7.25987 0.511091 5.70674 1.12004C4.15361 1.72899 2.80066 2.75829 1.79941 4.09265C0.798157 5.42702 0.188133 7.01376 0.0376519 8.67521C0.0279644 8.77965 0.0401387 8.88497 0.0733991 8.98445C0.106659 9.08392 0.160277 9.17538 0.230834 9.253C0.301392 9.33061 0.387343 9.39268 0.483211 9.43524C0.579078 9.4778 0.682761 9.49993 0.787652 9.50021C0.971093 9.50255 1.1488 9.43634 1.286 9.31454C1.42319 9.19275 1.50999 9.02413 1.5294 8.84171C1.69636 6.97477 2.55538 5.23773 3.93771 3.97184C5.32004 2.70594 7.12576 2.00268 9.00015 2.00021Z"
            fill="black" />
        <path
            d="M17.2134 9.50006C17.0299 9.49772 16.8522 9.56393 16.715 9.68573C16.5778 9.80752 16.491 9.97614 16.4716 10.1586C16.3476 11.586 15.8168 12.9479 14.9421 14.0827C14.0674 15.2175 12.8855 16.0776 11.5367 16.561C10.1879 17.0443 8.72877 17.1306 7.33239 16.8097C5.936 16.4887 4.66099 15.7739 3.65862 14.7501H6.00012C6.19903 14.7501 6.3898 14.6711 6.53045 14.5304C6.6711 14.3898 6.75012 14.199 6.75012 14.0001C6.75012 13.8012 6.6711 13.6104 6.53045 13.4697C6.3898 13.3291 6.19903 13.2501 6.00012 13.2501H2.89287C2.70995 13.25 2.52879 13.2859 2.35977 13.3559C2.19075 13.4258 2.03718 13.5284 1.90783 13.6578C1.77848 13.7871 1.6759 13.9407 1.60594 14.1097C1.53598 14.2787 1.50002 14.4599 1.50012 14.6428V17.7501C1.50012 17.949 1.57914 18.1398 1.71979 18.2804C1.86044 18.4211 2.05121 18.5001 2.25012 18.5001C2.44903 18.5001 2.6398 18.4211 2.78045 18.2804C2.9211 18.1398 3.00012 17.949 3.00012 17.7501V16.1916C4.23974 17.308 5.76568 18.0573 7.40705 18.3555C9.04842 18.6538 10.7404 18.4892 12.2935 17.8802C13.8467 17.2713 15.1996 16.242 16.2009 14.9076C17.2021 13.5733 17.8121 11.9865 17.9626 10.3251C17.9723 10.2206 17.9601 10.1153 17.9269 10.0158C17.8936 9.91634 17.84 9.82489 17.7694 9.74727C17.6989 9.66966 17.6129 9.60759 17.5171 9.56503C17.4212 9.52247 17.3175 9.50034 17.2126 9.50006H17.2134Z"
            fill="black" />
    </g>
    <defs>
        <clipPath id="clip0_350_3980">
            <rect width="18" height="18" fill="white" transform="translate(0 0.5)" />
        </clipPath>
    </defs>
</svg>